<?xml version="1.0" standalone="no"?><!DOCTYPE svg PUBLIC "-//W3C//DTD SVG 1.1//EN" "http://www.w3.org/Graphics/SVG/1.1/DTD/svg11.dtd"><svg t="1627291778617" class="icon" viewBox="0 0 1024 1024" version="1.1" xmlns="http://www.w3.org/2000/svg" p-id="1424" xmlns:xlink="http://www.w3.org/1999/xlink" width="200" height="200"><defs><style type="text/css">@font-face { font-family: feedback-iconfont; src: url("//at.alicdn.com/t/font_1031158_1uhr8ri0pk5.eot?#iefix") format("embedded-opentype"), url("//at.alicdn.com/t/font_1031158_1uhr8ri0pk5.woff2") format("woff2"), url("//at.alicdn.com/t/font_1031158_1uhr8ri0pk5.woff") format("woff"), url("//at.alicdn.com/t/font_1031158_1uhr8ri0pk5.ttf") format("truetype"), url("//at.alicdn.com/t/font_1031158_1uhr8ri0pk5.svg#iconfont") format("svg"); }
</style></defs><path d="M510.944 960c-247.04 0-448-200.96-448-448s200.992-448 448-448 448 200.96 448 448-200.96 448-448 448z m0-832c-211.744 0-384 172.256-384 384s172.256 384 384 384 384-172.256 384-384-172.256-384-384-384zM512 773.344A286.4 286.4 0 0 1 285.088 662.72a32 32 0 1 1 50.4-39.424A222.784 222.784 0 0 0 512 709.344a222.56 222.56 0 0 0 177.664-87.552 32 32 0 1 1 50.752 38.976A286.112 286.112 0 0 1 512 773.344zM368 515.2a48 48 0 0 1-48-48v-64a48 48 0 1 1 96 0v64a48 48 0 0 1-48 48z m288 0a48 48 0 0 1-48-48v-64a48 48 0 1 1 96 0v64a48 48 0 0 1-48 48z" fill="#333333" p-id="1425"></path></svg>